<svg width="168" height="171" viewBox="0 0 168 171" fill="none" xmlns="http://www.w3.org/2000/svg">
<path d="M64.8795 27.0014C63.0038 27.2902 61.0029 27.8468 59.3331 28.5301C55.5007 30.108 51.3961 32.6652 48.2477 35.4267C43.7606 39.3575 41.5317 43.1756 41.2154 47.4376C41.1934 47.7968 41.1419 48.1068 41.1051 48.1279C41.0683 48.1491 40.9947 48.0434 40.9285 47.8955C39.6486 44.8945 37.8023 42.9009 34.2273 40.6607C32.8076 39.7731 31.5718 39.111 28.5043 37.6034C25.4075 36.0818 24.7896 35.7578 23.9804 35.2435C22.2297 34.1234 21.5162 33.0527 21.1042 30.9393C20.913 29.946 20.8983 29.9108 20.7806 29.9108C20.5452 29.9108 19.6698 31.1859 19.199 32.2214C18.4046 33.9825 17.8529 36.4411 17.6469 39.1744C17.5366 40.6114 17.6028 44.4507 17.7573 45.7962C18.4267 51.5798 19.9494 55.9192 22.3768 58.9483C23.0462 59.7866 24.282 60.956 25.1427 61.5759C25.5105 61.8366 25.7973 62.0831 25.7753 62.1113C25.7606 62.1395 25.3045 62.1465 24.7675 62.1254C21.141 61.9704 17.4116 63.3512 11.5856 67.0002C9.47447 68.3246 7.9003 69.2686 7.23826 69.6278C4.95056 70.8677 3.50879 71.0015 1.14753 70.1984C0.426645 69.9589 0 69.8673 0 69.9519C0 70.0646 0.514917 71.1142 0.787087 71.551C2.00082 73.5234 4.50185 75.7495 7.62813 77.6586C12.6817 80.7441 18.3678 82.7659 23.2742 83.2308C26.121 83.4985 28.8868 83.0688 31.5056 81.9417C32.0278 81.7162 32.0425 81.7796 31.5938 82.4348C30.3286 84.2734 29.7034 86.2036 29.3429 89.3666C29.2179 90.4303 29.2179 94.4527 29.3356 96.3759C29.6519 101.377 29.5709 102.758 28.8795 104.069C28.5117 104.766 27.8938 105.477 27.0405 106.175C26.6359 106.513 26.2975 106.837 26.2975 106.893C26.2975 107.091 27.4671 107.302 28.2175 107.239C33.0356 106.858 39.1631 104.026 44.6874 99.6445C45.7246 98.8203 48.1815 96.4463 48.9465 95.5305C51.1386 92.8959 52.3156 90.388 52.7128 87.4998C52.7863 87.0137 52.8673 86.6192 52.904 86.6192C52.9408 86.6192 53.0512 86.7953 53.1468 87.0067C54.7577 90.4937 58.0753 93.0861 65.3945 96.5872C66.0197 96.8901 67.0643 97.4044 67.7116 97.7284C71.1395 99.4755 72.0516 100.483 72.5886 103.117C72.846 104.343 72.8902 104.371 73.4713 103.632C74.6777 102.096 75.5383 99.4966 75.965 96.08C76.1489 94.5936 76.1489 89.9583 75.965 88.3803C75.2441 82.2446 73.6111 77.7572 71.0291 74.7985C70.3671 74.0307 69.1386 72.9176 68.381 72.3893C68.0205 72.1427 67.7704 71.9173 67.8072 71.8821C67.844 71.8469 68.2044 71.8609 68.6384 71.9032C69.5506 72.0018 71.1983 71.9455 72.0884 71.7905C73.6258 71.5298 75.553 70.8747 77.4214 69.98C79.025 69.2122 80.6875 68.2541 84.005 66.1901C86.6899 64.5205 87.8669 63.8936 88.8967 63.5836C90.059 63.2384 91.4198 63.33 92.9866 63.8654C93.7002 64.112 94.1562 64.2106 94.1562 64.119C94.1562 64.1049 94.0606 63.8724 93.9429 63.6048C93.656 62.9637 93.2809 62.3297 92.7733 61.6464C92.2584 60.949 90.3164 59.0751 89.3749 58.3566C84.0786 54.3342 76.6932 51.3543 70.7643 50.833C67.969 50.5935 65.1223 51.0373 62.8272 52.0729C62.4521 52.2419 62.1284 52.3828 62.1137 52.3828C62.0181 52.3828 62.1284 52.1574 62.4447 51.6854C62.8934 51.0091 63.4819 49.8891 63.732 49.2269C64.1292 48.1702 64.4823 46.55 64.6736 44.9156C64.7913 43.8871 64.7913 39.2096 64.6662 37.5893C64.5191 35.6591 64.475 32.7145 64.5779 31.9185C64.6883 31.1225 64.9605 30.3194 65.3283 29.7276C65.6225 29.2557 66.5052 28.3399 67.2408 27.7552C67.7704 27.3255 67.8366 27.1775 67.5277 27.093C66.6965 26.8676 65.902 26.8394 64.8795 27.0014ZM64.3646 28.7907C64.3646 28.833 64.2543 29.0162 64.1219 29.1993C62.8934 30.8336 62.4374 32.8765 62.7316 35.4055C63.4378 41.3511 62.5183 46.8458 60.0908 51.2487C58.7888 53.5945 57.0675 55.7149 55.6257 56.7504C53.8088 58.0537 52.448 58.5116 50.4251 58.5186C49.0937 58.5257 47.9903 58.3425 46.6515 57.8987C46.3499 57.8071 46.0924 57.7367 46.0777 57.7578C46.0115 57.8212 47.3503 58.5961 48.2919 59.0399C50.1088 59.8923 51.2857 60.167 52.9261 60.1177C53.8162 60.0895 54.0442 60.0543 54.5812 59.8853C55.4933 59.5894 56.9645 58.8497 59.5465 57.3844C64.8207 54.3905 67.41 53.4184 70.3965 53.3198C74.5379 53.1859 79.9298 54.8202 85.6086 57.941C87.2196 58.8286 87.4991 58.9976 88.2715 59.5964C89.1395 60.2657 90.9711 62.0127 90.8828 62.0902C90.8387 62.1325 90.596 62.1325 90.2944 62.1043C89.6985 62.0338 88.5069 62.1184 87.8154 62.2733C86.6237 62.534 85.7484 62.9637 84.0786 64.0838C79.2899 67.289 75.3986 68.9093 70.8746 69.5856C69.5064 69.7898 66.6229 69.8392 65.1811 69.6842C63.2612 69.4799 61.3634 69.0502 60.1644 68.55C58.0679 67.6765 56.8027 66.5282 55.8317 64.6121C55.3389 63.64 55.0888 62.9355 54.846 61.8436L54.6768 61.0828L54.6327 61.4703C54.5444 62.1465 54.5738 63.6188 54.6915 64.4783C54.9858 66.5916 55.6037 67.9583 56.7806 69.0854C57.7443 70.0012 58.1636 70.2618 62.5624 72.6499C65.8726 74.4533 67.5277 75.5664 69.0357 77.0034C70.7349 78.6307 71.6323 80.096 72.5665 82.78C73.7508 86.1684 74.2437 89.4722 74.251 94.0512C74.2584 96.714 74.2437 96.8338 73.6993 98.9824C73.3536 100.328 73.2727 100.567 73.1844 100.567C73.1476 100.567 73.0079 100.335 72.8681 100.06C72.184 98.6935 71.0733 97.5382 69.6609 96.714C69.3961 96.559 68.5869 96.1716 67.8587 95.8546C63.7099 94.023 61.0397 92.3112 58.3695 89.754C56.5747 88.0422 55.5595 86.7883 54.4267 84.8933C53.3895 83.1604 52.3891 80.6525 52.1979 79.2929C52.0287 78.1024 51.9845 77.0668 52.0802 76.4117C52.3597 74.4533 53.6029 72.4104 55.4198 70.8958C55.7582 70.6141 56.0083 70.3745 55.9715 70.3605C55.8611 70.3182 54.5959 70.9874 53.7058 71.551C51.8889 72.6992 50.5428 74.2068 50.0058 75.7002C49.6527 76.6794 49.6233 77.095 49.6159 81.5824C49.6012 85.9359 49.5497 86.8869 49.2776 88.486C48.8803 90.7825 48.1815 92.5225 47.0413 94.0512C44.8051 97.0522 41.5023 99.8629 37.2947 102.343C35.2718 103.533 33.9625 104.181 32.7708 104.583C32.1602 104.787 29.8431 105.428 29.7034 105.428C29.5857 105.428 29.6519 105.287 29.9682 104.85C31.1378 103.244 31.5497 101.441 31.307 99.0528C31.0716 96.7422 31.0054 95.0092 31.1083 93.389C31.2334 91.2475 31.4394 89.8033 31.8586 88.1901C32.5354 85.5273 33.6094 83.1604 35.1247 80.9836C36.3237 79.2577 37.4345 78.0601 38.5379 77.3134C40.6711 75.8693 41.8775 75.4959 44.1946 75.5804C45.4304 75.6227 46.0704 75.7354 47.3062 76.1158C47.696 76.2356 48.0418 76.3342 48.0785 76.3342C48.233 76.3272 46.6147 75.3762 45.8644 75.0239C44.2681 74.2843 43.2604 74.0166 41.8113 73.9602C39.7957 73.8827 39.1484 74.1293 34.4774 76.771C29.49 79.5888 26.864 80.5891 23.9804 80.7723C21.119 80.9484 16.8451 79.9692 12.6522 78.1658C10.9824 77.4543 7.86352 75.827 6.69392 75.0662C5.70822 74.4181 3.16306 72.1427 3.25869 71.9877C3.28811 71.9455 3.51615 71.9455 3.83981 71.9807C4.56805 72.0582 5.87005 71.9384 6.67185 71.72C7.58399 71.4664 8.79772 70.8747 9.78342 70.1984C11.8284 68.7966 13.4099 67.8667 15.2342 66.9932C19.0814 65.1546 22.7078 64.2881 26.5476 64.2881C29.7696 64.2881 31.8513 64.7037 34.1464 65.8097C35.4778 66.4507 36.4561 67.2679 37.2359 68.3809C38.0965 69.6278 38.4643 70.5436 38.9719 72.7063C39.0307 72.9669 39.0381 72.9458 39.0969 72.3541C39.2735 70.4239 38.8836 68.0992 38.1406 66.6409C37.28 64.9503 36.4855 64.3444 31.9616 61.8929C30.5861 61.1462 29.1002 60.315 28.6515 60.0473C25.1794 57.948 23.0609 55.8346 21.9575 53.3691C20.17 49.4171 19.3167 44.6057 19.4418 39.1884C19.4786 37.4273 19.5374 37.0117 19.9714 35.2646C20.3245 33.8839 20.4422 33.5035 20.5231 33.5035C20.5599 33.5035 20.707 33.736 20.8394 34.0178C21.3691 35.1167 22.2665 36.1523 23.3552 36.9412C23.848 37.2935 24.7013 37.7232 27.0037 38.7728C29.6666 39.9845 32.4251 41.7245 34.4627 43.4856C37.9862 46.5288 40.4063 50.3258 41.517 54.5314C42.0687 56.6377 42.1055 57.3563 41.7451 58.6454C41.3184 60.16 40.4651 61.4773 39.0086 62.858C38.4717 63.3723 38.045 63.795 38.0671 63.795C38.0891 63.795 38.3981 63.6541 38.7585 63.485C40.0826 62.8439 41.6274 61.738 42.5689 60.7658C43.0471 60.2586 43.6723 59.3146 43.9077 58.7299C44.3491 57.6169 44.3711 57.321 44.4373 52.1011C44.4668 49.3466 44.5256 47.0924 44.5697 46.7472C45.0037 43.5913 45.7393 41.6681 47.2767 39.6956C49.5939 36.7229 52.882 34.0178 57.2661 31.4888C59.7083 30.0799 60.797 29.629 63.2612 28.9668C64.2911 28.6921 64.3646 28.678 64.3646 28.7907Z" fill="black"/>
<path d="M23.58 0.799998V26H21.744V2.456H8.712L8.388 11.708C8.244 15.164 7.944 17.948 7.488 20.06C7.056 22.148 6.408 23.696 5.544 24.704C4.68 25.712 3.54 26.216 2.124 26.216C1.476 26.216 0.876 26.144 0.324 26L0.54 24.308C0.948 24.404 1.344 24.452 1.728 24.452C2.832 24.452 3.72 24.032 4.392 23.192C5.088 22.328 5.616 20.972 5.976 19.124C6.336 17.276 6.576 14.816 6.696 11.744L7.056 0.799998H23.58ZM48.033 17.036H31.869C31.917 18.5 32.289 19.808 32.985 20.96C33.681 22.088 34.617 22.964 35.793 23.588C36.993 24.212 38.337 24.524 39.825 24.524C41.049 24.524 42.177 24.308 43.209 23.876C44.265 23.42 45.141 22.76 45.837 21.896L46.881 23.084C46.065 24.068 45.033 24.824 43.785 25.352C42.561 25.88 41.229 26.144 39.789 26.144C37.917 26.144 36.249 25.736 34.785 24.92C33.321 24.104 32.169 22.976 31.329 21.536C30.513 20.096 30.105 18.452 30.105 16.604C30.105 14.78 30.489 13.148 31.257 11.708C32.049 10.244 33.129 9.104 34.497 8.288C35.865 7.472 37.401 7.064 39.105 7.064C40.809 7.064 42.333 7.472 43.677 8.288C45.045 9.08 46.113 10.196 46.881 11.636C47.673 13.076 48.069 14.708 48.069 16.532L48.033 17.036ZM39.105 8.648C37.785 8.648 36.597 8.948 35.541 9.548C34.485 10.124 33.633 10.952 32.985 12.032C32.361 13.088 32.001 14.288 31.905 15.632H46.305C46.233 14.288 45.873 13.088 45.225 12.032C44.577 10.976 43.725 10.148 42.669 9.548C41.613 8.948 40.425 8.648 39.105 8.648ZM66.8025 8.828H55.7505V26H53.9505V7.208H66.8025V8.828ZM85.7908 17.036H69.6268C69.6748 18.5 70.0468 19.808 70.7428 20.96C71.4388 22.088 72.3748 22.964 73.5508 23.588C74.7508 24.212 76.0948 24.524 77.5828 24.524C78.8068 24.524 79.9348 24.308 80.9668 23.876C82.0228 23.42 82.8988 22.76 83.5948 21.896L84.6388 23.084C83.8228 24.068 82.7908 24.824 81.5428 25.352C80.3188 25.88 78.9868 26.144 77.5468 26.144C75.6748 26.144 74.0068 25.736 72.5428 24.92C71.0788 24.104 69.9268 22.976 69.0868 21.536C68.2708 20.096 67.8628 18.452 67.8628 16.604C67.8628 14.78 68.2468 13.148 69.0148 11.708C69.8068 10.244 70.8868 9.104 72.2548 8.288C73.6228 7.472 75.1588 7.064 76.8628 7.064C78.5668 7.064 80.0908 7.472 81.4348 8.288C82.8028 9.08 83.8708 10.196 84.6388 11.636C85.4308 13.076 85.8268 14.708 85.8268 16.532L85.7908 17.036ZM76.8628 8.648C75.5428 8.648 74.3548 8.948 73.2988 9.548C72.2428 10.124 71.3908 10.952 70.7428 12.032C70.1188 13.088 69.7588 14.288 69.6628 15.632H84.0628C83.9908 14.288 83.6308 13.088 82.9828 12.032C82.3348 10.976 81.4828 10.148 80.4268 9.548C79.3708 8.948 78.1828 8.648 76.8628 8.648ZM91.7083 7.208H93.5083V15.776H106.252V7.208H108.052V26H106.252V17.36H93.5083V26H91.7083V7.208ZM133.502 24.416V30.68H131.81V26H114.026V30.68H112.298V24.416H113.414C114.686 24.344 115.55 23.36 116.006 21.464C116.486 19.544 116.822 16.856 117.014 13.4L117.266 7.208H130.478V24.416H133.502ZM118.67 13.508C118.55 16.364 118.31 18.74 117.95 20.636C117.59 22.532 116.942 23.792 116.006 24.416H128.678V8.828H118.886L118.67 13.508ZM146.234 14.048C148.562 14.072 150.338 14.588 151.562 15.596C152.786 16.58 153.398 18.032 153.398 19.952C153.398 21.944 152.75 23.468 151.454 24.524C150.158 25.58 148.286 26.096 145.838 26.072L138.818 26V7.208H140.618V13.976L146.234 14.048ZM156.854 7.208H158.654V26H156.854V7.208ZM145.766 24.632C147.686 24.656 149.138 24.272 150.122 23.48C151.106 22.688 151.598 21.512 151.598 19.952C151.598 18.44 151.118 17.324 150.158 16.604C149.198 15.86 147.734 15.464 145.766 15.416L140.618 15.38V24.56L145.766 24.632Z" fill="black"/>
<path d="M28.512 144.539V152.279H26.784V146.195H4.536V120.995H6.372V144.539H22.608V120.995H24.444V144.539H28.512ZM44.6839 136.511C47.4439 136.991 48.8239 138.539 48.8239 141.155C48.8239 142.787 48.2239 144.035 47.0239 144.899C45.8479 145.763 44.0719 146.195 41.6959 146.195H33.5599V127.403H41.4799C43.5679 127.403 45.1999 127.823 46.3759 128.663C47.5759 129.479 48.1759 130.655 48.1759 132.191C48.1759 133.295 47.8639 134.219 47.2399 134.963C46.6399 135.683 45.7879 136.199 44.6839 136.511ZM35.3239 135.971H41.3719C42.9799 135.971 44.2159 135.671 45.0799 135.071C45.9439 134.447 46.3759 133.559 46.3759 132.407C46.3759 131.231 45.9439 130.355 45.0799 129.779C44.2399 129.179 43.0039 128.879 41.3719 128.879H35.3239V135.971ZM41.6599 144.719C45.2359 144.719 47.0239 143.507 47.0239 141.083C47.0239 139.811 46.6159 138.875 45.7999 138.275C44.9839 137.675 43.6999 137.375 41.9479 137.375H35.3239V144.719H41.6599ZM71.2361 137.231H55.0721C55.1201 138.695 55.4921 140.003 56.1881 141.155C56.8841 142.283 57.8201 143.159 58.9961 143.783C60.1961 144.407 61.5401 144.719 63.0281 144.719C64.2521 144.719 65.3801 144.503 66.4121 144.071C67.4681 143.615 68.3441 142.955 69.0401 142.091L70.0841 143.279C69.2681 144.263 68.2361 145.019 66.9881 145.547C65.7641 146.075 64.4321 146.339 62.9921 146.339C61.1201 146.339 59.4521 145.931 57.9881 145.115C56.5241 144.299 55.3721 143.171 54.5321 141.731C53.7161 140.291 53.3081 138.647 53.3081 136.799C53.3081 134.975 53.6921 133.343 54.4601 131.903C55.2521 130.439 56.3321 129.299 57.7001 128.483C59.0681 127.667 60.6041 127.259 62.3081 127.259C64.0121 127.259 65.5361 127.667 66.8801 128.483C68.2481 129.275 69.3161 130.391 70.0841 131.831C70.8761 133.271 71.2721 134.903 71.2721 136.727L71.2361 137.231ZM62.3081 128.843C60.9881 128.843 59.8001 129.143 58.7441 129.743C57.6881 130.319 56.8361 131.147 56.1881 132.227C55.5641 133.283 55.2041 134.483 55.1081 135.827H69.5081C69.4361 134.483 69.0761 133.283 68.4281 132.227C67.7801 131.171 66.9281 130.343 65.8721 129.743C64.8161 129.143 63.6281 128.843 62.3081 128.843ZM88.8387 129.023H81.4947V146.195H79.6947V129.023H72.3507V127.403H88.8387V129.023ZM99.3018 146.339C97.5258 146.339 95.9178 145.931 94.4778 145.115C93.0618 144.299 91.9458 143.171 91.1298 141.731C90.3138 140.267 89.9058 138.623 89.9058 136.799C89.9058 134.975 90.3138 133.343 91.1298 131.903C91.9458 130.439 93.0618 129.299 94.4778 128.483C95.9178 127.667 97.5258 127.259 99.3018 127.259C101.078 127.259 102.674 127.667 104.09 128.483C105.53 129.299 106.658 130.439 107.474 131.903C108.29 133.343 108.698 134.975 108.698 136.799C108.698 138.623 108.29 140.267 107.474 141.731C106.658 143.171 105.53 144.299 104.09 145.115C102.674 145.931 101.078 146.339 99.3018 146.339ZM99.3018 144.719C100.742 144.719 102.026 144.383 103.154 143.711C104.306 143.039 105.206 142.103 105.854 140.903C106.526 139.703 106.862 138.335 106.862 136.799C106.862 135.263 106.526 133.895 105.854 132.695C105.206 131.495 104.306 130.559 103.154 129.887C102.026 129.215 100.742 128.879 99.3018 128.879C97.8618 128.879 96.5658 129.215 95.4138 129.887C94.2858 130.559 93.3858 131.495 92.7138 132.695C92.0658 133.895 91.7418 135.263 91.7418 136.799C91.7418 138.335 92.0658 139.703 92.7138 140.903C93.3858 142.103 94.2858 143.039 95.4138 143.711C96.5658 144.383 97.8618 144.719 99.3018 144.719ZM125.684 136.511C128.444 136.991 129.824 138.539 129.824 141.155C129.824 142.787 129.224 144.035 128.024 144.899C126.848 145.763 125.072 146.195 122.696 146.195H114.56V127.403H122.48C124.568 127.403 126.2 127.823 127.376 128.663C128.576 129.479 129.176 130.655 129.176 132.191C129.176 133.295 128.864 134.219 128.24 134.963C127.64 135.683 126.788 136.199 125.684 136.511ZM116.324 135.971H122.372C123.98 135.971 125.216 135.671 126.08 135.071C126.944 134.447 127.376 133.559 127.376 132.407C127.376 131.231 126.944 130.355 126.08 129.779C125.24 129.179 124.004 128.879 122.372 128.879H116.324V135.971ZM122.66 144.719C126.236 144.719 128.024 143.507 128.024 141.083C128.024 139.811 127.616 138.875 126.8 138.275C125.984 137.675 124.7 137.375 122.948 137.375H116.324V144.719H122.66Z" fill="black"/>
</svg>
